<?xml version="1.0" encoding="UTF-8" standalone="no"?>
<!DOCTYPE svg PUBLIC "-//W3C//DTD SVG 1.1//EN" "http://www.w3.org/Graphics/SVG/1.1/DTD/svg11.dtd">
<svg width="100%" height="100%" viewBox="0 0 867 110" version="1.1" xmlns="http://www.w3.org/2000/svg" xmlns:xlink="http://www.w3.org/1999/xlink" xml:space="preserve" xmlns:serif="http://www.serif.com/" style="fill-rule:evenodd;clip-rule:evenodd;stroke-linejoin:round;stroke-miterlimit:2;">
    <g id="Layer-1" serif:id="Layer 1" transform="matrix(4.16667,0,0,4.16667,0,0)">
        <g transform="matrix(1,0,0,1,-21.84,0)">
            <g opacity="0.8">
                <g transform="matrix(1,0,0,1,111.145,7.0524)">
                    <path d="M0,11.002C2.373,11.002 3.759,10.141 3.759,8.293C3.759,6.593 2.415,5.816 0,5.816L-2.394,5.816L-2.394,11.002L0,11.002ZM-0.356,4.473C1.995,4.473 2.961,3.611 2.961,2.205C2.961,0.609 1.869,0 -0.272,0L-2.394,0L-2.394,4.473L-0.356,4.473ZM-4.136,-1.386L-0.042,-1.386C2.751,-1.386 4.683,-0.441 4.683,1.974C4.683,3.338 3.969,4.557 2.667,4.977L2.667,5.061C4.325,5.375 5.48,6.467 5.48,8.356C5.48,11.064 3.339,12.388 0.252,12.388L-4.136,12.388L-4.136,-1.386Z" style="fill-rule:nonzero;"/>
                </g>
                <g transform="matrix(1,0,0,1,124.815,11.7351)">
                    <path d="M0,5.206L0,2.372C-3.401,2.792 -4.577,3.632 -4.577,4.934C-4.577,6.089 -3.779,6.571 -2.771,6.571C-1.784,6.571 -0.986,6.089 0,5.206M-6.257,5.06C-6.257,2.834 -4.346,1.722 0,1.238C0,-0.064 -0.42,-1.323 -2.1,-1.323C-3.275,-1.323 -4.346,-0.777 -5.144,-0.231L-5.815,-1.429C-4.871,-2.037 -3.443,-2.751 -1.806,-2.751C0.693,-2.751 1.743,-1.093 1.743,1.448L1.743,7.705L0.315,7.705L0.168,6.487L0.105,6.487C-0.86,7.285 -1.994,7.957 -3.275,7.957C-4.976,7.957 -6.257,6.886 -6.257,5.06" style="fill-rule:nonzero;"/>
                </g>
                <g transform="matrix(1,0,0,1,129.017,14.3171)">
                    <path d="M0,0.042C0,-3.38 2.289,-5.333 4.913,-5.333C6.257,-5.333 7.181,-4.787 7.895,-4.136L7.013,-3.003C6.425,-3.527 5.795,-3.905 4.977,-3.905C3.129,-3.905 1.785,-2.31 1.785,0.042C1.785,2.372 3.065,3.947 4.935,3.947C5.879,3.947 6.698,3.485 7.328,2.919L8.084,4.073C7.16,4.892 6.005,5.375 4.787,5.375C2.079,5.375 0,3.423 0,0.042" style="fill-rule:nonzero;"/>
                </g>
                <g transform="matrix(1,0,0,1,139.349,19.4399)">
                    <path d="M0,-14.949L1.7,-14.949L1.7,-4.829L1.764,-4.829L6.109,-10.204L8.021,-10.204L4.598,-6.11L8.482,0L6.593,0L3.611,-4.913L1.7,-2.687L1.7,0L0,0L0,-14.949Z" style="fill-rule:nonzero;"/>
                </g>
                <g transform="matrix(1,0,0,1,155.748,15.1573)">
                    <path d="M0,-1.638C0,-3.696 -0.924,-4.808 -2.52,-4.808C-3.947,-4.808 -5.249,-3.654 -5.459,-1.638L0,-1.638ZM-7.139,-0.798C-7.139,-4.136 -4.892,-6.173 -2.562,-6.173C0.042,-6.173 1.512,-4.304 1.512,-1.386C1.512,-1.029 1.491,-0.652 1.448,-0.4L-5.438,-0.4C-5.312,1.763 -3.989,3.149 -2.036,3.149C-1.071,3.149 -0.252,2.835 0.504,2.351L1.112,3.485C0.231,4.051 -0.86,4.535 -2.247,4.535C-4.976,4.535 -7.139,2.54 -7.139,-0.798" style="fill-rule:nonzero;"/>
                </g>
                <g transform="matrix(1,0,0,1,159.781,19.1881)">
                    <path d="M0,-9.952L1.428,-9.952L1.575,-8.482L1.638,-8.482C2.604,-9.448 3.653,-10.204 5.06,-10.204C7.202,-10.204 8.167,-8.818 8.167,-6.215L8.167,0.252L6.446,0.252L6.446,-5.983C6.446,-7.894 5.858,-8.714 4.515,-8.714C3.464,-8.714 2.751,-8.167 1.722,-7.139L1.722,0.252L0,0.252L0,-9.952Z" style="fill-rule:nonzero;"/>
                </g>
                <g transform="matrix(1,0,0,1,177.734,7.3456)">
                    <path d="M0,9.491L0,4.158C-0.86,3.381 -1.638,3.088 -2.478,3.088C-4.115,3.088 -5.417,4.662 -5.417,6.992C-5.417,9.428 -4.388,10.898 -2.604,10.898C-1.659,10.898 -0.84,10.435 0,9.491M-7.202,7.013C-7.202,3.696 -5.103,1.638 -2.771,1.638C-1.596,1.638 -0.819,2.08 0.084,2.814L0,1.072L0,-2.855L1.743,-2.855L1.743,12.095L0.315,12.095L0.168,10.898L0.104,10.898C-0.692,11.675 -1.784,12.346 -2.981,12.346C-5.543,12.346 -7.202,10.415 -7.202,7.013" style="fill-rule:nonzero;"/>
                </g>
            </g>
        </g>
        <g transform="matrix(0.24,0,0,0.24,20.2525,-27.0708)">
            <rect x="26.15" y="136.103" width="7.263" height="57.4" style="fill:rgb(156,39,176);fill-rule:nonzero;"/>
            <path d="M48.463,193.503L55.638,193.503L55.638,162.703C59.575,158.328 63.163,156.141 66.313,156.141C71.738,156.141 74.275,159.553 74.275,167.516L74.275,193.503L81.45,193.503L81.45,162.703C85.388,158.328 88.8,156.141 92.125,156.141C97.463,156.141 100,159.553 100,167.516L100,193.503L107.175,193.503L107.175,166.553C107.175,155.703 102.975,149.928 94.225,149.928C89.063,149.928 84.688,153.253 80.225,158.066C78.475,152.991 74.975,149.928 68.5,149.928C63.425,149.928 58.963,153.078 55.288,157.103L55.025,157.103L54.413,150.978L48.463,150.978L48.463,193.503Z" style="fill:rgb(156,39,176);fill-rule:nonzero;"/>
            <path d="M130.8,194.553C136.138,194.553 140.863,191.753 144.888,188.428L145.15,188.428L145.763,193.503L151.713,193.503L151.713,167.428C151.713,156.841 147.338,149.928 136.925,149.928C130.1,149.928 124.15,152.903 120.213,155.441L123.013,160.428C126.338,158.153 130.8,155.878 135.7,155.878C142.7,155.878 144.45,161.128 144.45,166.553C126.338,168.566 118.375,173.203 118.375,182.478C118.375,190.091 123.713,194.553 130.8,194.553ZM132.9,188.778C128.7,188.778 125.375,186.766 125.375,181.953C125.375,176.528 130.275,173.028 144.45,171.278L144.45,183.091C140.338,186.766 137.013,188.778 132.9,188.778Z" style="fill:rgb(156,39,176);fill-rule:nonzero;"/>
            <path d="M179.45,213.103C192.663,213.103 200.975,206.278 200.975,198.403C200.975,191.316 195.988,188.253 186.1,188.253L177.875,188.253C172.1,188.253 170.35,186.328 170.35,183.616C170.35,181.253 171.575,179.853 173.063,178.541C174.988,179.503 177.35,180.028 179.45,180.028C188.113,180.028 195.025,174.341 195.025,165.241C195.025,161.653 193.538,158.416 191.525,156.491L200.275,156.491L200.275,150.978L185.488,150.978C183.913,150.366 181.813,149.928 179.45,149.928C170.788,149.928 163.438,155.791 163.438,165.066C163.438,170.141 166.15,174.253 168.95,176.528L168.95,176.878C166.763,178.366 164.313,181.166 164.313,184.753C164.313,188.078 165.975,190.353 168.075,191.666L168.075,192.016C164.225,194.641 161.863,198.053 161.863,201.641C161.863,208.991 169.038,213.103 179.45,213.103ZM179.45,175.216C174.55,175.216 170.438,171.278 170.438,165.066C170.438,158.853 174.463,155.178 179.45,155.178C184.438,155.178 188.463,158.853 188.463,165.066C188.463,171.278 184.35,175.216 179.45,175.216ZM180.5,208.116C172.8,208.116 168.163,205.228 168.163,200.678C168.163,198.228 169.475,195.691 172.538,193.503C174.375,194.028 176.388,194.203 178.05,194.203L185.4,194.203C190.913,194.203 193.975,195.516 193.975,199.453C193.975,203.916 188.638,208.116 180.5,208.116Z" style="fill:rgb(156,39,176);fill-rule:nonzero;"/>
            <path d="M225.213,194.553C230.988,194.553 235.538,192.541 239.213,190.178L236.675,185.453C233.525,187.466 230.113,188.778 226.088,188.778C217.95,188.778 212.438,183.003 211.913,173.991L240.613,173.991C240.788,172.941 240.875,171.366 240.875,169.878C240.875,157.716 234.75,149.928 223.9,149.928C214.188,149.928 204.825,158.416 204.825,172.328C204.825,186.241 213.838,194.553 225.213,194.553ZM211.825,168.828C212.7,160.428 218.125,155.616 224.075,155.616C230.725,155.616 234.575,160.253 234.575,168.828L211.825,168.828Z" style="fill:rgb(156,39,176);fill-rule:nonzero;"/>
        </g>
        <g transform="matrix(0.024,0,0,0.024,10.8294,12.6646)">
            <g transform="matrix(1,0,0,1,-416.667,-416.667)">
                <clipPath id="_clip1">
                    <rect x="0" y="0" width="833.333" height="833.333"/>
                </clipPath>
                <g clip-path="url(#_clip1)">
                    <g transform="matrix(4.16667,0,0,4.16667,0,0)">
                        <path d="M87.32,10.58L10.57,87.33C3.709,94.108 -0.156,103.361 -0.156,113.005C-0.156,132.804 16.136,149.096 35.935,149.096C45.428,149.096 54.547,145.351 61.3,138.68L61.3,62.44L137.68,62.44L137.68,138.83L61.3,138.83L61.3,138.72C54.8,145.447 51.164,154.444 51.164,163.798C51.164,183.596 67.455,199.888 87.254,199.888C96.771,199.888 105.913,196.123 112.67,189.42L189.43,112.68L87.32,10.58Z" style="fill:rgb(156,39,176);fill-rule:nonzero;"/>
                    </g>
                    <g transform="matrix(4.16667,0,0,4.16667,0,0)">
                        <path d="M138.37,61.63C131.602,68.398 122.413,72.205 112.842,72.205C93.038,72.205 76.742,55.909 76.742,36.105C76.742,16.301 93.038,0.005 112.842,0.005C122.413,0.005 131.602,3.812 138.37,10.58C152.366,24.586 152.366,47.624 138.37,61.63Z" style="fill:rgb(223,120,239);fill-rule:nonzero;"/>
                    </g>
                    <g transform="matrix(4.16667,0,0,4.16667,0,0)">
                        <path d="M189.43,112.68C182.662,119.448 173.473,123.255 163.902,123.255C144.098,123.255 127.802,106.959 127.802,87.155C127.802,67.351 144.098,51.055 163.902,51.055C173.473,51.055 182.662,54.862 189.43,61.63C203.431,75.633 203.431,98.677 189.43,112.68Z" style="fill:rgb(223,120,239);fill-rule:nonzero;"/>
                    </g>
                </g>
            </g>
        </g>
    </g>
</svg>
